<svg width="26" height="24" viewBox="0 0 26 24" fill="none" xmlns="http://www.w3.org/2000/svg">
<path d="M12.9836 23.0313L11.5075 21.7049C9.41793 19.7835 7.69294 18.1269 6.33253 16.7353C4.97212 15.3436 3.88781 14.0972 3.0796 12.9961C2.27139 11.895 1.70687 10.8931 1.38604 9.99067C1.0652 9.08819 0.904785 8.17271 0.904785 7.24422C0.904785 5.36956 1.53232 3.80403 2.78738 2.54763C4.04246 1.29123 5.59398 0.663025 7.44194 0.663025C8.54244 0.663025 9.56067 0.909036 10.4967 1.40106C11.4326 1.89308 12.2616 2.61294 12.9836 3.56065C13.8222 2.55461 14.6932 1.82016 15.5965 1.35731C16.4997 0.894453 17.476 0.663025 18.5253 0.663025C20.3919 0.663025 21.9536 1.29138 23.2103 2.5481C24.467 3.80481 25.0954 5.37072 25.0954 7.24582C25.0954 8.17292 24.935 9.08504 24.6141 9.98218C24.2933 10.8793 23.7288 11.8785 22.9206 12.9796C22.1124 14.0808 21.026 15.3305 19.6616 16.7289C18.2972 18.1273 16.5687 19.7859 14.4762 21.7049L12.9836 23.0313ZM12.9754 19.9853C14.9383 18.1771 16.55 16.6346 17.8103 15.358C19.0706 14.0814 20.0696 12.9652 20.8072 12.0095C21.5449 11.0538 22.0589 10.2028 22.3493 9.45675C22.6397 8.71064 22.7849 7.9752 22.7849 7.25043C22.7849 6.00799 22.3883 4.98456 21.5951 4.18015C20.802 3.37575 19.7835 2.97355 18.5398 2.97355C17.5656 2.97355 16.6604 3.28255 15.8243 3.90055C14.9881 4.51854 14.3075 5.3762 13.7825 6.47355H12.172C11.6692 5.38466 10.9951 4.52911 10.1499 3.90688C9.30457 3.28466 8.40065 2.97355 7.43809 2.97355C6.20928 2.97355 5.20103 3.37222 4.41333 4.16956C3.62564 4.9669 3.23179 5.99539 3.23179 7.25504C3.23179 7.9972 3.37941 8.74721 3.67466 9.50507C3.96988 10.2629 4.48664 11.124 5.22492 12.0881C5.96319 13.0523 6.96025 14.1678 8.21611 15.4347C9.47197 16.7015 11.0584 18.2184 12.9754 19.9853Z" fill="#64B07E"/>
</svg>
