<svg width="24" height="22" viewBox="0 0 24 22" fill="none" xmlns="http://www.w3.org/2000/svg">
<path d="M11.9837 22L10.5192 20.6954C8.4416 18.8079 6.72907 17.1792 5.38162 15.8093C4.03416 14.4395 2.95952 13.213 2.15768 12.13C1.35584 11.047 0.795764 10.0617 0.477458 9.17405C0.159153 8.28644 0 7.38656 0 6.4744C0 4.63431 0.621718 3.09521 1.86515 1.85713C3.10861 0.619043 4.64877 0 6.48565 0C7.57435 0 8.58378 0.24196 9.51395 0.725881C10.4441 1.2098 11.2673 1.91781 11.9837 2.84991C12.8157 1.86044 13.6796 1.13809 14.5754 0.682851C15.4712 0.227617 16.4399 0 17.4817 0C19.3294 0 20.8778 0.619043 22.1267 1.85713C23.3756 3.09521 24 4.63431 24 6.4744C24 7.38656 23.8408 8.28373 23.5225 9.16593C23.2042 10.0482 22.6442 11.0308 21.8423 12.1138C21.0405 13.1968 19.9631 14.426 18.6102 15.8012C17.2573 17.1765 15.5421 18.8079 13.4645 20.6954L11.9837 22Z" fill="#64B07E"/>
</svg>
