<svg width="27" height="27" viewBox="0 0 27 27" fill="none" xmlns="http://www.w3.org/2000/svg">
<path d="M24.3281 26.8031L15.0812 17.5906C14.4166 18.1159 13.6322 18.528 12.7279 18.8268C11.8237 19.1256 10.8435 19.275 9.78748 19.275C7.14835 19.275 4.91304 18.3583 3.08157 16.525C1.25009 14.6916 0.334351 12.4802 0.334351 9.8906C0.334351 7.30102 1.25102 5.08956 3.08435 3.25623C4.91768 1.42289 7.13487 0.506226 9.73591 0.506226C12.337 0.506226 14.5484 1.42289 16.3703 3.25623C18.1922 5.08956 19.1031 7.30274 19.1031 9.89576C19.1031 10.9236 18.9599 11.8786 18.6734 12.7609C18.387 13.6432 17.9573 14.4739 17.3844 15.2531L26.6656 24.4656L24.3281 26.8031ZM9.76523 16.0437C11.4816 16.0437 12.9285 15.445 14.1058 14.2476C15.2832 13.0502 15.8719 11.5979 15.8719 9.8906C15.8719 8.18331 15.2815 6.73097 14.1008 5.53357C12.9201 4.33617 11.4749 3.73748 9.76523 3.73748C8.03649 3.73748 6.57103 4.33617 5.36884 5.53357C4.16668 6.73097 3.5656 8.18331 3.5656 9.8906C3.5656 11.5979 4.165 13.0502 5.36379 14.2476C6.56261 15.445 8.02976 16.0437 9.76523 16.0437Z" fill="#A2D2B2"/>
</svg>
